<svg id="Layer_1" data-name="Layer 1" xmlns="http://www.w3.org/2000/svg" viewBox="0 0 710.5 943.71"><defs><style>.cls-1{stroke:#000;stroke-miterlimit:10;}</style></defs><title>track_source_img</title><polygon class="cls-1" points="0.5 536.18 0.64 682.18 149.45 703.18 241.42 619.68 164.45 536.18 0.5 536.18"/><path class="cls-1" d="M821.75,840l59-133s65,25,68,27,65-97,65-97l117,126-54,107-72-29-88,88Z" transform="translate(-604.75 -57.82)"/><polygon class="cls-1" points="518 853.18 578 762.18 710 788.18 710 943.18 590 936.18 518 853.18"/><polygon class="cls-1" points="0.5 268.34 0.64 414.35 149.45 435.34 241.42 351.84 164.45 268.34 0.5 268.34"/><path class="cls-1" d="M821.75,572.16l59-133s65,25,68,27,65-97,65-97l117,126-54,107-72-29-88,88Z" transform="translate(-604.75 -57.82)"/><polygon class="cls-1" points="518 585.34 578 494.34 710 520.34 710 675.34 590 668.34 518 585.34"/><polygon class="cls-1" points="0.5 0.5 0.64 146.51 149.45 167.5 241.42 84 164.45 0.5 0.5 0.5"/><path class="cls-1" d="M821.75,304.32l59-133s65,25,68,27,65-97,65-97l117,126-54,107-72-29-88,88Z" transform="translate(-604.75 -57.82)"/><polygon class="cls-1" points="518 317.5 578 226.5 710 252.5 710 407.5 590 400.5 518 317.5"/></svg>